<svg width="86" height="90" viewBox="0 0 86 90" fill="none" xmlns="http://www.w3.org/2000/svg">
<path d="M40.0502 9.16205C40.5226 8.96435 41.0468 8.94841 41.5294 9.11705L67.3294 18.1171C67.7315 18.2577 68.0848 18.5195 68.3451 18.8697C68.6054 19.2199 68.7609 19.6428 68.7922 20.0852C68.8234 20.5276 68.729 20.9699 68.5207 21.3563C68.3125 21.7427 67.9997 22.0561 67.6218 22.2571L67.6003 22.2661L67.5143 22.3111L67.1789 22.5046C65.3674 23.5455 63.6326 24.7263 61.9888 26.0371C60.5095 27.1897 59.158 28.5119 57.9597 29.9791C57.0137 31.1806 56.3515 32.3596 56.0247 33.4756L64.0184 50.211L72.6141 56.205C74.0863 57.2325 75.2935 58.6243 76.1283 60.2571C76.9632 61.8899 77.4 63.7132 77.4 65.565V74.25C77.4006 74.8293 77.1877 75.3864 76.8056 75.8055C76.4236 76.2246 75.9018 76.4734 75.3489 76.5L75.25 74.25L75.3489 76.5H75.1855C74.512 76.519 73.8382 76.525 73.1645 76.5181C64.9397 76.375 56.7681 75.1088 48.8566 72.7515C34.5548 68.4405 17.7676 59.1391 8.80639 39.2086C8.66749 38.9005 8.59725 38.5634 8.60097 38.2227C8.6047 37.8821 8.68229 37.5467 8.82789 37.2421C11.5928 31.4596 16.6754 25.6006 22.3256 20.6596C27.993 15.7096 34.4215 11.5156 40.0502 9.16205ZM73.1 69.597C41.2241 66.897 24.0327 50.7151 14.835 35.4871C14.2288 36.3913 13.669 37.3286 13.158 38.2951C21.5 55.9306 36.6489 64.386 50.0477 68.4315C57.551 70.6671 65.2998 71.8741 73.1 72.0225V69.5925V69.597ZM25.628 23.6385L33.7722 32.1571C34.0083 32.4046 34.1861 32.7063 34.2914 33.0383C34.3966 33.3703 34.4264 33.7234 34.3785 34.0696L32.293 49.3425C35.3159 51.876 38.7258 54.2475 42.5743 56.3445L48.9641 49.1626L38.9709 30.3436C38.7609 29.9474 38.6701 29.494 38.7103 29.0429C38.7506 28.5918 38.92 28.1639 39.1965 27.8153C39.473 27.4666 39.8436 27.2134 40.2598 27.0888C40.6761 26.9643 41.1186 26.9741 41.5294 27.1171L52.3654 30.8971C52.9555 29.5335 53.7224 28.2615 54.6444 27.1171C56.0505 25.3865 57.637 23.8258 59.3744 22.4641C60.0774 21.8969 60.7988 21.355 61.5373 20.8396L40.9274 13.6486C36.1415 15.7681 30.6375 19.35 25.628 23.6385ZM59.1637 62.766C63.4293 63.8461 68.0604 64.6335 73.0828 65.079C73.012 64.0528 72.7179 63.057 72.223 62.1679C71.7282 61.2788 71.0457 60.5198 70.2276 59.949L63.1326 54.9991L59.1637 62.766Z" fill="black"/>
</svg>
